<?xml version="1.0" encoding="utf-8"?>
<!-- Generator: Adobe Illustrator 23.0.4, SVG Export Plug-In . SVG Version: 6.00 Build 0)  -->
<svg version="1.1" id="Capa_1" xmlns="http://www.w3.org/2000/svg" xmlns:xlink="http://www.w3.org/1999/xlink" x="0px" y="0px"
	 viewBox="0 0 20 20" style="enable-background:new 0 0 20 20;" xml:space="preserve">
<path d="M19.9,17.75c-0.48-3.74-3.01-6.78-6.37-8.06c1.19-1.01,1.95-2.51,1.95-4.19c0-3.03-2.47-5.5-5.5-5.5s-5.5,2.47-5.5,5.5
	c0,1.68,0.76,3.19,1.96,4.2c-3.34,1.28-5.86,4.32-6.34,8.05c-0.07,0.57,0.1,1.14,0.48,1.57C0.97,19.75,1.52,20,2.09,20h15.81
	c0.58,0,1.13-0.25,1.51-0.68C19.79,18.89,19.97,18.32,19.9,17.75z M9.98,2c1.93,0,3.5,1.57,3.5,3.5S11.91,9,9.98,9
	s-3.5-1.57-3.5-3.5S8.05,2,9.98,2z M2.09,18c0.5-3.97,3.91-6.96,7.91-6.96s7.41,2.99,7.91,6.96L2.09,18z"/>
</svg>
